<?xml version="1.0" encoding="UTF-8"?>
<svg version="1.1" viewBox="0 0 512 512" xml:space="preserve" xmlns="http://www.w3.org/2000/svg"><g><image x="-44" y="-24" width="590" height="560" display="none" preserveAspectRatio="none"/><path d="m6 316h50v190h-50zm80-30h-80v-40h80v-105a65 65 135 0 1 65-65 65 65 45 0 1 65 65v105h180a20 20 45 0 1 20 20 20 20 135 0 1-20 20h-260l6e-3 220c-16.669-1.9e-4 -33.337-3.9e-4 -50.006-5.8e-4zm65-165a15 15 135 0 0-15 15v110h30v-110a15 15 45 0 0-15-15zm15 265h50v120h-50zm80 80h30v-25h30v25h140a10 10 135 0 0 10-10v-190h50v190c0 27.614-22.386 49.965-50 49.922-32.463-0.0507-64.925-0.10132-97.388-0.15199l-112.61 0.23004zm0-80h150a20 20 45 0 1 20 20c0 11.046-8.9543 20.003-20 20.007l-150 0.0555zm-80-70h50v40h-50zm80 0h180v40h-180zm210-95h50v20h-50zm-440-10a15 15 135 0 1 15-15 15 15 45 0 1 15 15 15 15 135 0 1-15 15 15 15 45 0 1-15-15zm320-135a70 70 45 0 1 70 70 70 70 135 0 1-70 70 70 70 45 0 1-70-70 70 70 135 0 1 70-70zm120 120v-150h-60a20 20 45 0 1-20-20 20 20 135 0 1 20-20h110v190zm-450-189.93 50-0.069587v170h-50zm80-0.069587h180a20 20 45 0 1 20 20 20 20 135 0 1-20 20h-180zm230 20a15 15 135 0 1 15-15 15 15 45 0 1 15 15 15 15 135 0 1-15 15 15 15 45 0 1-15-15z" fill="currentColor"/></g></svg>